<?xml version="1.0" encoding="utf-8"?>
<svg viewBox="0 0 256 256" xmlns="http://www.w3.org/2000/svg">
  <circle style="fill: rgb(14, 139, 139);" cx="128.476" cy="128.34" r="126.931"/>
  <g id="group">
    <path id="path" d="M 60.8 78 C 51.1 79.2 45.5 84.1 40 96.4 C 34.6 108.3 30.1 131.4 30 147.2 C 30 158.6 30.6 159 48.1 159 L 61.7 159 L 62.3 154.8 C 63.5 145.8 72.6 138 81.9 138 C 91.5 138 100.8 145.7 101.7 154.4 L 102.3 159 L 128.6 159 C 149.1 159 155 158.7 155 157.7 C 155 151.4 160.5 143.3 167.1 139.9 C 178.7 134.1 193.5 142 195.7 155.2 L 196.3 159 L 207.5 159 C 217.9 159 218.8 158.8 220.8 156.7 C 223.5 153.8 223.7 148.2 221.5 137.4 C 218 120.6 208.6 98.3 202.2 91.7 C 193.5 82.6 185.6 80.3 159 79 C 133.4 77.8 68.1 77.1 60.8 78 Z M 75 96.5 L 75 109 L 50 109 L 50 104.2 C 50 94.4 54.1 86 59.5 84.7 C 60.6 84.4 64.5 84.2 68.3 84.1 L 75 84 L 75 96.5 Z M 99.05 83.852 L 104.85 83.953 L 105 97.1 L 105 109 L 81 109 L 81 84 L 86.9 84 C 90.1 84 95.5 83.851 99.05 83.852 Z M 131.56 84.321 L 133.85 84.302 L 134 97.1 L 134 109 L 111 109 L 111 84.17 L 119.23 84.17 C 123.301 84.17 127.364 84.437 129.56 84.311 C 129.845 84.295 131.364 84.355 131.56 84.321 Z M 162.4 85.6 C 163.7 86.1 164 88.1 164 97.6 L 164 109 L 140 109 L 140 85 L 150.4 85 C 156.1 85 161.5 85.3 162.4 85.6 Z M 186.5 89.1 C 193.2 91.6 198.6 96.2 201.5 102.1 C 202.9 104.7 204 107.4 204 108 C 204 108.6 198 109 187 109 L 170 109 L 170 97.4 L 169.83 86.395 L 175.7 86.33 C 178.9 86.73 183.7 88 186.5 89.1 Z" fill="#ffffff" stroke-width="1"/>
    <path id="path_1" d="M 170.8 144 C 157.8 147.9 153.8 165 163.6 174.2 C 176.5 186.3 197.6 174.1 193.1 157.2 C 190.5 147.2 180.2 141.1 170.8 144 Z M 182.8 155.6 C 185.2 158.4 185.6 162 183.8 165.3 C 182 168.7 179.9 169.9 175.7 170 C 168.6 170 164.5 162 168.6 156.2 C 172 151.4 178.8 151.1 182.8 155.6 Z M 77.346 143.888 C 64.346 147.788 60.346 164.888 70.146 174.088 C 83.046 186.188 104.146 173.988 99.646 157.088 C 97.046 147.088 86.746 140.988 77.346 143.888 Z M 89.346 155.488 C 91.746 158.288 92.146 161.888 90.346 165.188 C 88.546 168.588 86.446 169.788 82.246 169.888 C 75.146 169.888 71.046 161.888 75.146 156.088 C 78.546 151.288 85.346 150.988 89.346 155.488 Z" fill="#ffffff" stroke-width="1"/>
  </g>
</svg>