<svg
    xmlns="http://www.w3.org/2000/svg"
    viewBox="0 0 500 1068"
    id="vector">
    <g id="group">
        <path
            id="path"
            d="M 228 10.6 C 180.7 16.3 142.5 31.1 107 57.6 C 97.6 64.7 69 91.3 69 93 C 69 93.4 67.4 95.4 65.5 97.5 C 55.2 108.4 39 134.7 30.5 154.4 C 4.4 214.5 4.4 283.5 30.5 343.7 C 37.2 359.2 47.6 377.2 58.3 391.5 C 68.5 405.5 93.2 430.2 107.2 440.6 C 175.9 491.8 266.4 502.4 344.7 468.5 C 360.3 461.8 378.9 451 392.8 440.6 C 406.3 430.5 431.3 405.6 441.3 392.2 C 483.3 336 498.5 265.1 483.4 197 C 473.7 153.7 452.8 115.3 421.1 82.8 C 384.4 45 341.2 22.3 288.5 12.9 C 279.1 11.2 271.5 10.7 254 10.5 C 241.6 10.3 229.9 10.4 228 10.6 Z M 280 50.6 C 351.7 60.9 412.9 110.6 438.3 179 C 446.6 201.5 450.3 222.6 450.3 249 C 450.3 283.3 444 309.9 429 340 C 400 398 345.1 437.5 279.5 447.6 C 264.7 449.9 235.5 449.8 220.5 447.6 C 155.1 437.6 100 398 71 340 C 56 309.9 49.7 283.3 49.7 249 C 49.7 213.7 56.1 187.3 72.1 156 C 90.9 119.4 120.4 89.9 157 71.1 C 182.9 57.9 205.7 51.3 234 49 C 246.2 47.9 266.6 48.7 280 50.6 Z M 223 750.9 L 223 1004 L 174 1004 L 174 1068 L 328 1068 L 328 1004 L 278 1004 L 278 497.8 L 274.8 498.6 C 270.6 499.5 228.2 499.5 225.3 498.6 L 223 497.9 L 223 750.9 Z"
            fill="#008b8b"
            stroke-width="1"/>
    </g>
</svg>
