<svg
    xmlns="http://www.w3.org/2000/svg"
    viewBox="0 0 1068 1068"
    id="vector">
    <g id="group"/>
    <path
        id="path"
        d="M 497.705 91.781 C 393.616 104.923 302.044 169.587 256.57 261.785 C 232.999 309.762 224.655 344.597 224.447 397.371 C 224.238 434.292 225.907 448.477 234.877 484.355 C 265.54 607.842 361.91 771.588 505.214 944.095 C 519.816 961.617 532.748 976.219 534 976.219 C 535.043 976.219 545.055 965.163 556.32 951.605 C 665.831 821.234 753.023 688.359 799.54 581.142 C 813.933 548.184 831.246 495.202 837.921 464.121 C 842.927 440.341 843.553 432.415 843.553 399.457 C 843.345 344.805 835.418 310.805 811.43 261.785 C 775.552 189.403 707.55 130.371 631.205 105.548 C 592.198 92.824 535.877 86.984 497.705 91.781 Z M 555.902 180.434 C 573.216 185.023 586.566 192.949 598.873 205.882 C 647.892 257.822 618.898 342.928 547.767 355.235 C 521.693 359.616 493.324 351.063 473.299 332.498 C 435.335 296.829 434.918 238.005 472.465 202.545 C 495.619 180.642 525.865 172.716 555.902 180.434 Z M 578.222 439.924 C 649.144 452.231 702.127 483.103 711.513 517.938 C 713.391 525.239 713.182 526.908 707.759 534.626 C 698.789 547.767 670.003 576.136 656.027 585.523 C 619.106 610.345 576.345 623.695 534 623.695 C 468.502 623.695 403.42 591.572 364.622 540.466 C 353.566 525.656 353.149 522.319 361.076 506.674 C 370.254 488.527 391.113 472.673 423.863 458.906 C 474.342 437.838 527.534 431.372 578.222 439.924 Z"
        fill="#008b8b"
        stroke-width="1"/>
</svg>
