<svg
    xmlns="http://www.w3.org/2000/svg"
    viewBox="0 0 1068 1068"
    id="vector">
    <path
        id="path"
        d="M 454.734 1.252 C 356.07 4.798 284.313 15.227 229.245 34.418 C 187.317 49.02 159.783 65.081 135.377 89.695 C 110.763 114.518 96.787 141.218 88.444 179.391 C 84.689 196.287 84.48 212.557 84.48 501.668 C 84.48 750.312 84.898 808.509 87.401 818.73 C 94.284 849.602 109.512 878.805 129.328 899.873 L 139.341 910.512 L 140.175 966.832 C 140.801 1020.858 141.009 1023.57 145.807 1034.208 C 152.273 1048.601 166.249 1060.908 180.851 1065.08 C 189.612 1067.583 200.25 1068.209 230.079 1067.583 C 267.834 1066.957 268.043 1066.957 279.307 1060.699 C 290.988 1054.233 301.418 1042.343 306.007 1029.827 C 307.467 1025.864 308.51 1009.594 308.51 989.152 L 308.719 955.359 L 759.281 955.359 L 759.49 989.152 C 759.49 1009.594 760.533 1025.864 761.993 1029.827 C 766.582 1042.343 777.012 1054.233 788.693 1060.699 C 799.957 1066.957 800.166 1066.957 837.921 1067.583 C 867.75 1068.209 878.388 1067.583 887.149 1065.08 C 901.751 1060.908 915.727 1048.601 922.193 1034.208 C 926.991 1023.57 927.199 1020.858 927.825 966.832 L 928.659 910.512 L 938.672 899.873 C 958.488 878.805 973.716 849.602 980.599 818.73 C 983.102 808.509 983.52 750.312 983.52 501.668 C 983.52 212.557 983.311 196.287 979.556 179.391 C 971.212 141.218 957.237 114.518 932.623 89.695 C 884.229 41.093 809.135 16.062 680.016 5.006 C 645.18 2.086 498.748 -0.417 454.734 1.252 Z M 871.505 365.456 L 870.879 505.84 L 197.121 505.84 L 196.495 365.456 L 196.078 225.281 L 871.922 225.281 L 871.505 365.456 Z M 304.547 678.347 C 355.027 693.366 379.015 748.643 355.861 795.785 C 330.413 847.099 262.411 858.572 222.152 818.313 C 204.005 800.166 194.618 772.214 198.164 746.974 C 205.256 696.912 256.362 663.954 304.547 678.347 Z M 809.761 678.347 C 815.393 679.39 825.197 683.979 831.872 688.359 C 868.376 711.93 880.683 755.527 861.909 795.577 C 842.927 836.252 793.282 853.983 752.398 834.792 C 733.624 826.031 721.109 813.933 712.139 795.785 C 691.071 753.023 708.802 702.752 751.98 682.936 C 770.962 674.175 785.773 672.923 809.761 678.347 Z"
        fill="#0e8b4d"
        stroke-width="1"/>
</svg>
